<svg width="60" height="9" viewBox="0 0 60 9" fill="none" xmlns="http://www.w3.org/2000/svg">
<path d="M7.524 8.604C7.516 8.652 7.468 8.664 7.38 8.64C7.3 8.624 7.228 8.568 7.164 8.472C7.1 8.32 7.068 8.18 7.068 8.052C7.068 7.924 7.072 7.732 7.08 7.476C7.128 7.196 7.192 6.832 7.272 6.384C7.36 5.928 7.46 5.42 7.572 4.86C7.692 4.292 7.82 3.7 7.956 3.084C8.052 2.764 8.128 2.472 8.184 2.208C8.248 1.936 8.296 1.716 8.328 1.548C8.36 1.38 8.376 1.296 8.376 1.296C8.376 1.272 8.352 1.284 8.304 1.332C8.264 1.372 8.224 1.42 8.184 1.476C8.144 1.532 8.128 1.576 8.136 1.608C8.136 1.608 8.108 1.648 8.052 1.728C7.996 1.808 7.924 1.916 7.836 2.052C7.756 2.132 7.66 2.292 7.548 2.532C7.436 2.772 7.312 2.996 7.176 3.204C7.048 3.444 6.912 3.704 6.768 3.984C6.624 4.256 6.496 4.484 6.384 4.668C6.312 4.772 6.24 4.892 6.168 5.028C6.096 5.164 6.052 5.252 6.036 5.292C6.004 5.38 5.948 5.488 5.868 5.616C5.788 5.736 5.7 5.856 5.604 5.976C5.556 6.048 5.508 6.124 5.46 6.204C5.412 6.276 5.372 6.34 5.34 6.396C5.316 6.444 5.304 6.468 5.304 6.468C5.304 6.492 5.264 6.564 5.184 6.684C5.112 6.804 5.02 6.936 4.908 7.08C4.804 7.224 4.704 7.348 4.608 7.452C4.328 7.748 4.104 7.924 3.936 7.98C3.768 8.028 3.58 7.956 3.372 7.764C3.268 7.636 3.192 7.492 3.144 7.332C3.096 7.164 3.076 6.96 3.084 6.72C3.092 6.472 3.12 6.164 3.168 5.796C3.224 5.516 3.276 5.236 3.324 4.956C3.372 4.668 3.416 4.4 3.456 4.152C3.504 3.896 3.544 3.68 3.576 3.504C3.616 3.328 3.648 3.212 3.672 3.156C3.688 2.996 3.684 2.908 3.66 2.892C3.636 2.876 3.588 2.924 3.516 3.036C3.484 3.092 3.4 3.232 3.264 3.456C3.128 3.672 2.968 3.94 2.784 4.26C2.608 4.58 2.432 4.928 2.256 5.304C1.928 5.912 1.656 6.416 1.44 6.816C1.232 7.208 1.064 7.52 0.936 7.752C0.816 7.984 0.728 8.156 0.672 8.268C0.616 8.38 0.576 8.456 0.552 8.496C0.528 8.536 0.508 8.564 0.492 8.58C0.42 8.58 0.344 8.548 0.264 8.484C0.192 8.428 0.116 8.36 0.036 8.28C0.012 8.224 2.98023e-08 8.168 2.98023e-08 8.112C0.00800002 8.056 0.036 7.976 0.084 7.872C0.132 7.76 0.204 7.592 0.3 7.368C0.404 7.16 0.5 6.98 0.588 6.828C0.676 6.668 0.744 6.572 0.792 6.54C0.832 6.476 0.868 6.412 0.9 6.348C0.932 6.284 0.952 6.208 0.96 6.12C1 6.072 1.06 5.976 1.14 5.832C1.228 5.68 1.316 5.516 1.404 5.34C1.468 5.236 1.548 5.1 1.644 4.932C1.748 4.764 1.856 4.58 1.968 4.38C2.08 4.172 2.18 3.976 2.268 3.792C2.636 3.16 2.948 2.628 3.204 2.196C3.46 1.756 3.652 1.476 3.78 1.356C3.82 1.316 3.86 1.26 3.9 1.188C3.948 1.116 3.972 1.052 3.972 0.996C3.972 0.827999 4.004 0.675999 4.068 0.54C4.14 0.396 4.212 0.332 4.284 0.347999C4.364 0.347999 4.436 0.355999 4.5 0.372C4.564 0.388 4.632 0.44 4.704 0.528C4.768 0.624 4.824 0.72 4.872 0.816C4.92 0.911999 4.916 1.104 4.86 1.392C4.86 1.504 4.848 1.632 4.824 1.776C4.8 1.912 4.776 2.04 4.752 2.16C4.736 2.272 4.724 2.36 4.716 2.424C4.612 2.736 4.516 3.088 4.428 3.48C4.34 3.864 4.26 4.256 4.188 4.656C4.116 5.048 4.056 5.416 4.008 5.76C3.96 6.096 3.928 6.376 3.912 6.6C3.904 6.816 3.912 6.94 3.936 6.972C3.992 7.004 4.04 7.008 4.08 6.984C4.12 6.96 4.188 6.856 4.284 6.672C4.34 6.576 4.416 6.46 4.512 6.324C4.616 6.18 4.716 6.048 4.812 5.928C4.876 5.816 4.976 5.648 5.112 5.424C5.248 5.2 5.42 4.912 5.628 4.56C5.844 4.208 6.1 3.78 6.396 3.276C6.7 2.764 7.044 2.172 7.428 1.5C7.612 1.22 7.784 0.947999 7.944 0.683999C8.112 0.411999 8.248 0.236 8.352 0.156C8.464 0.0519996 8.58 0.0279994 8.7 0.0839992C8.82 0.131999 8.924 0.236 9.012 0.395999C9.108 0.555999 9.16 0.755999 9.168 0.996C9.176 1.108 9.16 1.288 9.12 1.536C9.088 1.784 9.036 2.068 8.964 2.388C8.892 2.7 8.8 3.024 8.688 3.36C8.664 3.496 8.624 3.668 8.568 3.876C8.52 4.076 8.464 4.284 8.4 4.5C8.336 4.716 8.272 4.92 8.208 5.112C8.168 5.376 8.12 5.636 8.064 5.892C8.016 6.148 8 6.32 8.016 6.408C7.944 6.536 7.896 6.72 7.872 6.96C7.848 7.2 7.836 7.448 7.836 7.704C7.804 8.016 7.78 8.236 7.764 8.364C7.748 8.492 7.72 8.552 7.68 8.544C7.576 8.512 7.524 8.532 7.524 8.604ZM9.51272 7.596C9.48072 7.532 9.44072 7.484 9.39272 7.452C9.34472 7.412 9.32072 7.376 9.32072 7.344C9.32072 7.312 9.31672 7.28 9.30872 7.248C9.30872 7.208 9.29272 7.172 9.26072 7.14C9.22072 7.092 9.22472 6.984 9.27272 6.816C9.32072 6.64 9.40072 6.428 9.51272 6.18C9.62472 5.924 9.75672 5.656 9.90872 5.376C9.97272 5.312 10.0367 5.228 10.1007 5.124C10.1647 5.02 10.2127 4.952 10.2447 4.92C10.2447 4.888 10.2567 4.86 10.2807 4.836C10.3047 4.804 10.3327 4.788 10.3647 4.788V4.716C10.3647 4.676 10.4007 4.608 10.4727 4.512C10.5527 4.416 10.6487 4.312 10.7607 4.2C10.8727 4.08 10.9887 3.968 11.1087 3.864C11.2287 3.752 11.3287 3.672 11.4087 3.624C11.5767 3.512 11.7487 3.444 11.9247 3.42C12.1087 3.396 12.2647 3.436 12.3927 3.54C12.4167 3.564 12.4567 3.604 12.5127 3.66C12.5687 3.716 12.6327 3.78 12.7047 3.852C12.7847 3.916 12.8647 3.984 12.9447 4.056L13.3887 4.452L13.1727 5.052C13.0687 5.372 13.0407 5.652 13.0887 5.892C13.1447 6.132 13.2247 6.34 13.3287 6.516C13.3687 6.604 13.4487 6.688 13.5687 6.768C13.6967 6.848 13.8167 6.896 13.9287 6.912C13.9927 6.92 14.0527 6.944 14.1087 6.984C14.1647 7.024 14.1927 7.088 14.1927 7.176C14.1927 7.256 14.1767 7.32 14.1447 7.368C14.1127 7.416 14.0567 7.448 13.9767 7.464C13.7127 7.496 13.4647 7.432 13.2327 7.272C13.0087 7.112 12.8007 6.848 12.6087 6.48C12.5767 6.432 12.5327 6.344 12.4767 6.216C12.4287 6.08 12.4007 5.992 12.3927 5.952C12.3607 5.992 12.3007 6.068 12.2127 6.18C12.1247 6.284 12.0567 6.36 12.0087 6.408C11.4407 6.984 10.9487 7.372 10.5327 7.572C10.1247 7.764 9.78472 7.772 9.51272 7.596ZM9.94472 6.924C9.94472 6.98 10.0287 6.98 10.1967 6.924C10.3727 6.86 10.5607 6.748 10.7607 6.588C11.0327 6.356 11.3047 6.1 11.5767 5.82C11.8567 5.54 12.0807 5.28 12.2487 5.04L12.5127 4.608C12.4327 4.424 12.3447 4.3 12.2487 4.236C12.1607 4.164 12.0847 4.128 12.0207 4.128C11.9167 4.128 11.7607 4.224 11.5527 4.416C11.3527 4.608 11.1367 4.864 10.9047 5.184C10.6727 5.504 10.4527 5.856 10.2447 6.24C10.1647 6.4 10.0927 6.556 10.0287 6.708C9.97272 6.852 9.94472 6.924 9.94472 6.924ZM15.615 7.944C15.527 7.928 15.435 7.884 15.339 7.812C15.251 7.732 15.171 7.644 15.099 7.548C15.035 7.444 14.991 7.352 14.967 7.272C14.967 7.256 14.955 7.236 14.931 7.212C14.915 7.188 14.907 7.176 14.907 7.176C14.875 7.152 14.855 7.048 14.847 6.864C14.847 6.672 14.859 6.46 14.883 6.228C14.907 5.996 14.935 5.812 14.967 5.676C15.007 5.548 15.067 5.376 15.147 5.16C15.227 4.936 15.295 4.736 15.351 4.56L15.675 3.864L15.195 3.732C15.139 3.716 15.091 3.684 15.051 3.636C15.019 3.588 15.003 3.548 15.003 3.516C15.003 3.452 15.039 3.376 15.111 3.288C15.183 3.192 15.235 3.144 15.267 3.144C15.307 3.152 15.379 3.156 15.483 3.156C15.595 3.156 15.703 3.152 15.807 3.144C15.911 3.136 15.975 3.128 15.999 3.12C16.031 3.104 16.063 3.084 16.095 3.06C16.127 3.028 16.151 2.984 16.167 2.928C16.207 2.84 16.243 2.76 16.275 2.688C16.307 2.608 16.351 2.52 16.407 2.424C16.463 2.32 16.507 2.232 16.539 2.16C16.579 2.088 16.639 1.988 16.719 1.86C16.759 1.804 16.803 1.736 16.851 1.656C16.899 1.576 16.959 1.508 17.031 1.452C17.103 1.388 17.175 1.36 17.247 1.368C17.327 1.368 17.427 1.42 17.547 1.524C17.611 1.604 17.647 1.664 17.655 1.704C17.663 1.744 17.631 1.82 17.559 1.932C17.495 2.068 17.419 2.204 17.331 2.34C17.251 2.476 17.175 2.612 17.103 2.748C16.975 2.924 16.951 3.024 17.031 3.048C17.111 3.072 17.335 3.056 17.703 3C17.935 2.96 18.103 2.972 18.207 3.036C18.311 3.092 18.371 3.188 18.387 3.324C18.411 3.516 18.391 3.632 18.327 3.672C18.263 3.712 18.079 3.732 17.775 3.732C17.583 3.764 17.419 3.784 17.283 3.792C17.147 3.792 17.047 3.792 16.983 3.792C16.879 3.8 16.811 3.804 16.779 3.804C16.747 3.804 16.699 3.812 16.635 3.828C16.571 3.844 16.523 3.872 16.491 3.912C16.467 3.944 16.439 3.992 16.407 4.056C16.375 4.088 16.327 4.172 16.263 4.308C16.199 4.444 16.119 4.592 16.023 4.752C15.911 5.088 15.815 5.424 15.735 5.76C15.655 6.088 15.591 6.408 15.543 6.72C15.511 6.92 15.515 7.06 15.555 7.14C15.595 7.212 15.699 7.256 15.867 7.272C15.955 7.28 16.095 7.28 16.287 7.272C16.487 7.256 16.643 7.232 16.755 7.2C16.843 7.16 16.935 7.12 17.031 7.08C17.127 7.032 17.215 6.984 17.295 6.936C17.367 6.896 17.439 6.856 17.511 6.816C17.583 6.768 17.619 6.744 17.619 6.744C17.659 6.68 17.703 6.66 17.751 6.684C17.799 6.708 17.839 6.768 17.871 6.864C17.871 6.96 17.851 7.06 17.811 7.164C17.771 7.268 17.623 7.392 17.367 7.536C17.007 7.76 16.675 7.896 16.371 7.944C16.075 7.984 15.823 7.984 15.615 7.944ZM19.7917 8.064C19.4397 8.064 19.1517 7.932 18.9277 7.668C18.7037 7.396 18.5957 7.06 18.6037 6.66C18.6197 6.372 18.6757 6.064 18.7717 5.736C18.8757 5.4 19.0117 5.08 19.1797 4.776C19.3477 4.464 19.5317 4.192 19.7317 3.96C19.9317 3.728 20.1397 3.564 20.3557 3.468C20.4357 3.428 20.5197 3.396 20.6077 3.372C20.7037 3.348 20.7997 3.336 20.8957 3.336C20.9837 3.336 21.0757 3.352 21.1717 3.384C21.2677 3.408 21.3477 3.436 21.4117 3.468C21.5477 3.524 21.6517 3.592 21.7237 3.672C21.7957 3.752 21.8597 3.876 21.9157 4.044C21.9397 4.196 21.9517 4.304 21.9517 4.368C21.9517 4.432 21.9317 4.528 21.8917 4.656C21.7957 4.944 21.6717 5.192 21.5197 5.4C21.3677 5.608 21.1637 5.784 20.9077 5.928C20.8437 5.968 20.7677 6 20.6797 6.024C20.5997 6.04 20.5157 6.048 20.4277 6.048C20.2677 6.048 20.1117 6.02 19.9597 5.964C19.8157 5.9 19.6997 5.808 19.6117 5.688L19.5277 5.592L19.4917 5.688C19.4117 5.904 19.3477 6.104 19.2997 6.288C19.2597 6.472 19.2397 6.64 19.2397 6.792C19.2397 6.888 19.2477 6.98 19.2637 7.068C19.2877 7.156 19.3197 7.232 19.3597 7.296C19.3917 7.344 19.4437 7.38 19.5157 7.404C19.5957 7.42 19.6797 7.428 19.7677 7.428C19.8237 7.428 19.8797 7.428 19.9357 7.428C19.9997 7.42 20.0597 7.404 20.1157 7.38C20.2517 7.332 20.3597 7.28 20.4397 7.224C20.5277 7.168 20.6157 7.108 20.7037 7.044L20.7517 7.02H20.7397C20.8357 6.972 20.9197 6.924 20.9917 6.876C21.0717 6.828 21.1117 6.804 21.1117 6.804C21.1437 6.804 21.1757 6.784 21.2077 6.744C21.2717 6.712 21.3517 6.724 21.4477 6.78C21.5517 6.836 21.6037 6.908 21.6037 6.996C21.5957 7.036 21.5597 7.1 21.4957 7.188C21.4317 7.268 21.3597 7.344 21.2797 7.416C21.2077 7.488 21.1477 7.528 21.0997 7.536C21.0917 7.544 21.0637 7.56 21.0157 7.584C20.9677 7.6 20.9357 7.616 20.9197 7.632H20.9317C20.8597 7.728 20.7877 7.776 20.7157 7.776H20.6197C20.5877 7.832 20.4837 7.896 20.3077 7.968C20.1317 8.032 19.9597 8.064 19.7917 8.064ZM20.3317 5.424C20.4757 5.424 20.5997 5.384 20.7037 5.304C20.8157 5.216 20.9117 5.12 20.9917 5.016C21.1517 4.8 21.2437 4.592 21.2677 4.392C21.2997 4.184 21.2757 4.04 21.1957 3.96C21.1477 3.936 21.1037 3.924 21.0637 3.924C21.0317 3.916 20.9637 3.928 20.8597 3.96C20.7877 3.976 20.6877 4.036 20.5597 4.14C20.4317 4.244 20.3037 4.36 20.1757 4.488C20.0557 4.616 19.9637 4.724 19.8997 4.812L19.7437 5.064C19.8077 5.04 19.8677 5.028 19.9237 5.028C19.9877 5.02 20.0237 5.024 20.0317 5.04C20.0317 5.112 20.0437 5.18 20.0677 5.244C20.0997 5.3 20.1357 5.344 20.1757 5.376C20.2237 5.408 20.2757 5.424 20.3317 5.424ZM23.382 7.416C23.23 7.28 23.114 7.14 23.034 6.996C22.962 6.852 22.906 6.624 22.866 6.312C22.85 6.168 22.866 5.98 22.914 5.748C22.962 5.508 23.03 5.256 23.118 4.992C23.206 4.728 23.306 4.488 23.418 4.272C23.53 4.048 23.642 3.88 23.754 3.768C23.85 3.648 23.926 3.584 23.982 3.576C24.046 3.56 24.158 3.588 24.318 3.66C24.406 3.764 24.45 3.876 24.45 3.996C24.45 4.116 24.402 4.252 24.306 4.404C24.146 4.62 24.006 4.892 23.886 5.22C23.774 5.54 23.698 5.828 23.658 6.084C23.578 6.356 23.542 6.54 23.55 6.636C23.558 6.732 23.63 6.796 23.766 6.828C23.918 6.86 24.098 6.804 24.306 6.66C24.514 6.508 24.718 6.3 24.918 6.036C25.118 5.764 25.278 5.468 25.398 5.148C25.446 5.036 25.482 4.904 25.506 4.752C25.538 4.6 25.57 4.488 25.602 4.416C25.642 4.256 25.698 4.14 25.77 4.068C25.842 3.988 25.918 3.944 25.998 3.936C26.078 3.92 26.146 3.936 26.202 3.984C26.274 4.016 26.318 4.056 26.334 4.104C26.35 4.144 26.35 4.256 26.334 4.44C26.334 4.736 26.27 4.988 26.142 5.196C26.014 5.404 25.906 5.624 25.818 5.856C25.746 6.024 25.638 6.212 25.494 6.42C25.358 6.628 25.206 6.816 25.038 6.984C24.878 7.152 24.722 7.268 24.57 7.332C24.346 7.476 24.146 7.548 23.97 7.548C23.802 7.54 23.606 7.496 23.382 7.416ZM28.1234 7.92C27.9234 7.936 27.7314 7.924 27.5474 7.884C27.3714 7.844 27.2194 7.776 27.0914 7.68C26.9714 7.576 26.8874 7.452 26.8394 7.308C26.7834 7.196 26.7554 7.12 26.7554 7.08C26.7554 7.032 26.7834 6.992 26.8394 6.96C26.9034 6.96 26.9594 6.98 27.0074 7.02C27.0634 7.052 27.1354 7.088 27.2234 7.128C27.3434 7.232 27.4874 7.288 27.6554 7.296C27.8314 7.304 27.9914 7.276 28.1354 7.212C28.2794 7.148 28.3594 7.068 28.3754 6.972C28.3754 6.94 28.3634 6.884 28.3394 6.804C28.3154 6.724 28.2874 6.64 28.2554 6.552C28.0394 6.248 27.8794 5.948 27.7754 5.652C27.6794 5.348 27.6314 5.1 27.6314 4.908C27.6314 4.764 27.6754 4.612 27.7634 4.452C27.8514 4.284 27.9714 4.144 28.1234 4.032C28.2674 3.88 28.4274 3.744 28.6034 3.624C28.7794 3.504 28.9554 3.4 29.1314 3.312C29.3154 3.224 29.4794 3.16 29.6234 3.12C29.7114 3.12 29.8274 3.132 29.9714 3.156C30.1154 3.18 30.2154 3.208 30.2714 3.24C30.3594 3.272 30.4434 3.36 30.5234 3.504C30.6034 3.64 30.6434 3.776 30.6434 3.912C30.6434 3.968 30.6274 4.04 30.5954 4.128C30.5634 4.216 30.5114 4.32 30.4394 4.44C30.4074 4.528 30.3714 4.612 30.3314 4.692C30.2914 4.764 30.2714 4.816 30.2714 4.848C30.2314 4.936 30.1754 4.98 30.1034 4.98C30.0394 4.972 29.9714 4.936 29.8994 4.872C29.8354 4.8 29.7834 4.716 29.7434 4.62C29.7114 4.5 29.6994 4.404 29.7074 4.332C29.7154 4.252 29.7474 4.168 29.8034 4.08C29.8914 3.992 29.9354 3.932 29.9354 3.9C29.9354 3.868 29.8914 3.852 29.8034 3.852C29.7474 3.852 29.6434 3.888 29.4914 3.96C29.3474 4.024 29.1914 4.112 29.0234 4.224C28.8634 4.328 28.7234 4.44 28.6034 4.56C28.4514 4.704 28.3594 4.808 28.3274 4.872C28.3034 4.936 28.2914 5.036 28.2914 5.172C28.2914 5.284 28.3154 5.424 28.3634 5.592C28.4194 5.76 28.4754 5.872 28.5314 5.928C28.5314 5.928 28.5594 5.984 28.6154 6.096C28.6714 6.2 28.7394 6.312 28.8194 6.432C29.0514 6.944 29.1114 7.312 28.9994 7.536C28.8874 7.76 28.5954 7.888 28.1234 7.92ZM34.0995 8.604C34.0035 8.604 33.9235 8.552 33.8595 8.448C33.8115 8.4 33.7795 8.332 33.7635 8.244C33.7555 8.164 33.7835 8.016 33.8475 7.8C33.9115 7.576 34.0195 7.236 34.1715 6.78C34.2515 6.476 34.3155 6.256 34.3635 6.12C34.4115 5.976 34.4355 5.872 34.4355 5.808C34.4355 5.72 34.4435 5.648 34.4595 5.592C34.4835 5.528 34.4955 5.468 34.4955 5.412C34.5435 5.412 34.5915 5.368 34.6395 5.28C34.6875 5.192 34.7275 5.072 34.7595 4.92C34.7915 4.784 34.8195 4.676 34.8435 4.596C34.8755 4.508 34.8915 4.448 34.8915 4.416C34.9315 4.352 34.9715 4.252 35.0115 4.116C35.0595 3.98 35.1315 3.816 35.2275 3.624C35.2915 3.384 35.3635 3.136 35.4435 2.88C35.5235 2.616 35.6035 2.372 35.6835 2.148C35.7715 1.916 35.8435 1.736 35.8995 1.608C35.9875 1.36 36.0555 1.188 36.1035 1.092C36.1515 0.988 36.1515 0.92 36.1035 0.888C36.0475 0.848 36.0355 0.779999 36.0675 0.683999C36.0995 0.588 36.1875 0.48 36.3315 0.359999C36.4195 0.256 36.4955 0.184 36.5595 0.144C36.6235 0.0959995 36.7035 0.0719993 36.7995 0.0719993C36.9035 0.0719993 37.0515 0.0799994 37.2435 0.0959997C37.3875 0.104 37.5395 0.108 37.6995 0.108C37.8675 0.108 37.9715 0.108 38.0115 0.108C38.0835 0.14 38.1715 0.176 38.2755 0.216C38.3795 0.248 38.4715 0.28 38.5515 0.312C38.6395 0.343999 38.6835 0.371999 38.6835 0.395999C38.6835 0.443999 38.6995 0.475999 38.7315 0.492C38.7715 0.5 38.8115 0.507999 38.8515 0.515999C38.9075 0.515999 38.9835 0.559999 39.0795 0.648C39.1755 0.728 39.2755 0.832 39.3795 0.959999C39.4835 1.08 39.5635 1.208 39.6195 1.344C39.6835 1.48 39.7315 1.608 39.7635 1.728C39.8035 1.848 39.8035 2.02 39.7635 2.244C39.7555 2.364 39.7355 2.484 39.7035 2.604C39.6795 2.724 39.6515 2.804 39.6195 2.844C39.5715 2.876 39.5275 2.916 39.4875 2.964C39.4475 3.012 39.4275 3.056 39.4275 3.096C39.4275 3.128 39.3995 3.192 39.3435 3.288C39.2875 3.376 39.2155 3.48 39.1275 3.6C39.0395 3.72 38.9435 3.84 38.8395 3.96C38.7355 4.08 38.6355 4.184 38.5395 4.272C38.4355 4.4 38.3115 4.52 38.1675 4.632C38.0315 4.744 37.9075 4.836 37.7955 4.908C37.5875 5.004 37.3555 5.1 37.0995 5.196C36.8515 5.292 36.6115 5.372 36.3795 5.436C36.1555 5.5 35.9675 5.528 35.8155 5.52C35.5835 5.552 35.4315 5.584 35.3595 5.616C35.2955 5.64 35.2475 5.708 35.2155 5.82C35.1755 5.924 35.1355 6.032 35.0955 6.144C35.0635 6.248 35.0475 6.32 35.0475 6.36C35.0315 6.392 34.9915 6.492 34.9275 6.66C34.8715 6.82 34.8075 7.008 34.7355 7.224C34.6715 7.44 34.6075 7.652 34.5435 7.86C34.4795 8.068 34.4315 8.24 34.3995 8.376C34.3675 8.488 34.3275 8.552 34.2795 8.568C34.2315 8.592 34.1715 8.604 34.0995 8.604ZM35.5875 4.884C35.6195 4.916 35.7435 4.92 35.9595 4.896C36.1755 4.872 36.4075 4.812 36.6555 4.716C36.8155 4.66 36.9755 4.592 37.1355 4.512C37.3035 4.432 37.4635 4.344 37.6155 4.248C37.6955 4.192 37.8155 4.092 37.9755 3.948C38.1355 3.804 38.2955 3.632 38.4555 3.432C38.4795 3.392 38.5195 3.316 38.5755 3.204C38.6395 3.084 38.6955 2.972 38.7435 2.868C38.8155 2.756 38.8875 2.592 38.9595 2.376C39.0315 2.152 39.0475 1.968 39.0075 1.824C38.9675 1.616 38.8635 1.424 38.6955 1.248C38.5275 1.064 38.3275 0.94 38.0955 0.876C37.9195 0.844 37.7715 0.828 37.6515 0.828C37.5395 0.828 37.4155 0.84 37.2795 0.864C37.1515 0.904 37.0555 0.96 36.9915 1.032C36.9355 1.104 36.8595 1.256 36.7635 1.488C36.7075 1.6 36.6275 1.772 36.5235 2.004C36.4195 2.228 36.3315 2.44 36.2595 2.64C36.1155 3.168 35.9715 3.604 35.8275 3.948C35.6915 4.284 35.6075 4.496 35.5755 4.584C35.5835 4.672 35.5795 4.736 35.5635 4.776C35.5475 4.808 35.5555 4.844 35.5875 4.884ZM39.7951 7.644C39.7311 7.58 39.6831 7.5 39.6511 7.404C39.6271 7.308 39.6191 7.212 39.6271 7.116C39.6351 7.02 39.6551 6.94 39.6871 6.876C39.6871 6.812 39.6951 6.764 39.7111 6.732C39.7351 6.692 39.7431 6.656 39.7351 6.624C39.7271 6.592 39.7351 6.536 39.7591 6.456C39.7831 6.376 39.8071 6.3 39.8311 6.228C39.8871 6.1 39.9471 5.948 40.0111 5.772C40.0751 5.588 40.1351 5.408 40.1911 5.232C40.2471 5.056 40.2951 4.904 40.3351 4.776C40.3751 4.648 40.3991 4.568 40.4071 4.536C40.4071 4.44 40.4711 4.388 40.5991 4.38C40.6951 4.348 40.7671 4.348 40.8151 4.38C40.8631 4.404 40.9271 4.48 41.0071 4.608C41.0711 4.672 41.0951 4.768 41.0791 4.896C41.0631 5.024 41.0111 5.184 40.9231 5.376C40.8911 5.44 40.8511 5.532 40.8031 5.652C40.7631 5.772 40.7351 5.88 40.7191 5.976C40.6871 6.04 40.6471 6.132 40.5991 6.252C40.5591 6.364 40.5231 6.472 40.4911 6.576C40.4751 6.616 40.4591 6.676 40.4431 6.756C40.4271 6.828 40.4071 6.908 40.3831 6.996C40.3591 7.076 40.3271 7.148 40.2871 7.212C40.2151 7.54 40.1471 7.732 40.0831 7.788C40.0271 7.844 39.9311 7.796 39.7951 7.644ZM40.9591 2.772C40.9191 2.732 40.8831 2.676 40.8511 2.604C40.8191 2.524 40.7991 2.452 40.7911 2.388C40.7831 2.316 40.7911 2.28 40.8151 2.28C40.8791 2.272 40.9551 2.204 41.0431 2.076C41.1311 1.948 41.1671 1.836 41.1511 1.74C41.1511 1.708 41.1631 1.68 41.1871 1.656C41.2111 1.624 41.2391 1.604 41.2711 1.596C41.3671 1.532 41.4591 1.524 41.5471 1.572C41.6431 1.612 41.7311 1.696 41.8111 1.824C41.8831 1.976 41.9031 2.104 41.8711 2.208C41.8391 2.304 41.7511 2.44 41.6071 2.616C41.4871 2.776 41.3751 2.864 41.2711 2.88C41.1751 2.896 41.0711 2.86 40.9591 2.772ZM42.9814 8.628C42.7174 8.588 42.5374 8.488 42.4414 8.328C42.3534 8.176 42.3334 7.94 42.3814 7.62C42.4294 7.468 42.4574 7.332 42.4654 7.212C42.4814 7.084 42.5174 7.004 42.5734 6.972C42.5734 6.972 42.5774 6.96 42.5854 6.936C42.6014 6.912 42.5974 6.888 42.5734 6.864C42.5734 6.76 42.6094 6.616 42.6814 6.432C42.6974 6.384 42.7174 6.328 42.7414 6.264C42.7734 6.192 42.7894 6.156 42.7894 6.156C42.7494 6.092 42.7494 6.04 42.7894 6C42.8294 5.96 42.8694 5.924 42.9094 5.892C42.9574 5.852 42.9614 5.808 42.9214 5.76C42.9054 5.728 42.9254 5.656 42.9814 5.544C43.0374 5.424 43.1014 5.3 43.1734 5.172C43.2454 5.044 43.2934 4.944 43.3174 4.872C43.3174 4.856 43.3374 4.8 43.3774 4.704C43.4174 4.608 43.4654 4.496 43.5214 4.368C43.5774 4.24 43.6294 4.124 43.6774 4.02C43.7334 3.916 43.7694 3.848 43.7854 3.816C43.8654 3.776 43.8334 3.748 43.6894 3.732C43.5454 3.716 43.3934 3.712 43.2334 3.72C42.9854 3.712 42.7854 3.7 42.6334 3.684C42.4894 3.668 42.3694 3.632 42.2734 3.576C42.1774 3.464 42.1414 3.384 42.1654 3.336C42.1974 3.28 42.2934 3.248 42.4534 3.24C42.5574 3.232 42.6374 3.228 42.6934 3.228C42.7574 3.228 42.8374 3.224 42.9334 3.216C43.0374 3.2 43.1974 3.18 43.4134 3.156L44.0254 3.108L44.0614 2.904C44.1254 2.8 44.1774 2.708 44.2174 2.628C44.2654 2.54 44.3054 2.452 44.3374 2.364C44.3694 2.276 44.3934 2.184 44.4094 2.088C44.4094 2.088 44.4454 2.024 44.5174 1.896C44.5894 1.76 44.6334 1.62 44.6494 1.476C44.7454 1.316 44.8294 1.172 44.9014 1.044C44.9734 0.908 45.0174 0.823999 45.0334 0.791999C45.1214 0.719999 45.1814 0.683999 45.2134 0.683999C45.2534 0.683999 45.3334 0.723999 45.4534 0.803999C45.5254 0.844 45.5894 0.892 45.6454 0.947999C45.7014 1.004 45.7374 1.064 45.7534 1.128C45.7694 1.184 45.7454 1.24 45.6814 1.296C45.6654 1.328 45.6414 1.388 45.6094 1.476C45.5774 1.556 45.5534 1.624 45.5374 1.68C45.4894 1.736 45.4294 1.828 45.3574 1.956C45.2934 2.076 45.2494 2.2 45.2254 2.328C45.1614 2.464 45.1014 2.588 45.0454 2.7C44.9894 2.804 44.9454 2.856 44.9134 2.856C44.9294 2.936 44.9774 2.976 45.0574 2.976C45.1374 2.968 45.2694 2.96 45.4534 2.952C45.6054 2.936 45.7094 2.92 45.7654 2.904C45.8294 2.88 45.9014 2.888 45.9814 2.928C46.0214 2.984 46.0534 3.048 46.0774 3.12C46.1014 3.192 46.1054 3.26 46.0894 3.324C46.0814 3.38 46.0494 3.42 45.9934 3.444C45.9534 3.444 45.8694 3.468 45.7414 3.516C45.6214 3.556 45.4694 3.58 45.2854 3.588L44.6494 3.648L44.4454 4.056C44.3894 4.16 44.3414 4.256 44.3014 4.344C44.2614 4.424 44.2334 4.472 44.2174 4.488C44.2174 4.536 44.1894 4.608 44.1334 4.704C44.0854 4.8 44.0334 4.904 43.9774 5.016C43.9294 5.152 43.8734 5.276 43.8094 5.388C43.7534 5.5 43.7254 5.556 43.7254 5.556C43.6934 5.556 43.6774 5.58 43.6774 5.628C43.7174 5.724 43.7054 5.796 43.6414 5.844C43.6014 5.868 43.5654 5.904 43.5334 5.952C43.5094 5.992 43.4974 6.012 43.4974 6.012C43.5294 6.044 43.5334 6.084 43.5094 6.132C43.4934 6.18 43.4694 6.232 43.4374 6.288C43.4374 6.352 43.4174 6.444 43.3774 6.564C43.3454 6.684 43.3094 6.796 43.2694 6.9C43.2774 7.044 43.2854 7.136 43.2934 7.176C43.3014 7.216 43.3214 7.232 43.3534 7.224C43.3934 7.232 43.4294 7.232 43.4614 7.224C43.4934 7.216 43.5254 7.212 43.5574 7.212C43.6694 7.164 43.6094 7.444 43.3774 8.052C43.2494 8.252 43.1614 8.396 43.1134 8.484C43.0654 8.58 43.0214 8.628 42.9814 8.628ZM48.694 8.004C48.638 8.036 48.562 8.024 48.466 7.968C48.378 7.912 48.29 7.828 48.202 7.716C48.146 7.62 48.106 7.516 48.082 7.404C48.066 7.292 48.058 7.136 48.058 6.936C48.066 6.776 48.058 6.672 48.034 6.624C48.018 6.576 47.974 6.584 47.902 6.648C47.83 6.704 47.706 6.82 47.53 6.996C47.33 7.196 47.138 7.352 46.954 7.464C46.778 7.576 46.634 7.628 46.522 7.62C46.466 7.62 46.402 7.592 46.33 7.536C46.266 7.472 46.206 7.396 46.15 7.308C46.094 7.212 46.046 7.116 46.006 7.02C45.958 6.844 45.95 6.62 45.982 6.348C46.022 6.068 46.086 5.776 46.174 5.472C46.262 5.168 46.362 4.88 46.474 4.608C46.594 4.336 46.714 4.116 46.834 3.948C46.962 3.78 47.074 3.696 47.17 3.696C47.234 3.696 47.29 3.728 47.338 3.792C47.394 3.856 47.45 3.956 47.506 4.092C47.538 4.148 47.55 4.196 47.542 4.236C47.542 4.276 47.51 4.324 47.446 4.38C47.374 4.476 47.29 4.62 47.194 4.812C47.106 5.004 47.018 5.212 46.93 5.436C46.85 5.66 46.778 5.876 46.714 6.084C46.65 6.292 46.606 6.464 46.582 6.6C46.558 6.728 46.562 6.792 46.594 6.792C46.706 6.792 46.838 6.748 46.99 6.66C47.15 6.564 47.302 6.448 47.446 6.312C47.614 6.144 47.762 5.96 47.89 5.76C48.026 5.56 48.162 5.348 48.298 5.124C48.402 4.964 48.51 4.788 48.622 4.596C48.742 4.404 48.818 4.268 48.85 4.188C48.962 3.98 49.046 3.84 49.102 3.768C49.158 3.688 49.226 3.636 49.306 3.612C49.346 3.612 49.382 3.612 49.414 3.612C49.454 3.612 49.474 3.612 49.474 3.612C49.522 3.62 49.578 3.656 49.642 3.72C49.706 3.752 49.742 3.784 49.75 3.816C49.758 3.84 49.762 3.872 49.762 3.912C49.73 3.992 49.678 4.112 49.606 4.272C49.542 4.424 49.494 4.536 49.462 4.608C49.31 4.952 49.158 5.292 49.006 5.628C48.862 5.956 48.758 6.292 48.694 6.636C48.678 6.748 48.674 6.88 48.682 7.032C48.698 7.176 48.722 7.28 48.754 7.344C48.778 7.392 48.806 7.448 48.838 7.512C48.878 7.568 48.922 7.616 48.97 7.656C49.042 7.704 49.054 7.756 49.006 7.812C48.966 7.868 48.91 7.916 48.838 7.956C48.766 7.988 48.718 8.004 48.694 8.004ZM50.5434 7.608C50.4714 7.552 50.4194 7.496 50.3874 7.44C50.3634 7.384 50.3634 7.276 50.3874 7.116C50.4114 6.892 50.4434 6.696 50.4834 6.528C50.5234 6.352 50.5714 6.152 50.6274 5.928C50.6434 5.832 50.6874 5.668 50.7594 5.436C50.8394 5.204 50.9354 4.952 51.0474 4.68C51.1594 4.408 51.2714 4.152 51.3834 3.912C51.4954 3.664 51.5914 3.48 51.6714 3.36C51.7354 3.312 51.8114 3.292 51.8994 3.3C51.9954 3.308 52.0754 3.344 52.1394 3.408C52.2274 3.48 52.2394 3.608 52.1754 3.792C52.1194 3.968 51.9994 4.248 51.8154 4.632C51.7194 4.848 51.6474 5.012 51.5994 5.124C51.5514 5.228 51.5314 5.292 51.5394 5.316C51.5474 5.332 51.5834 5.32 51.6474 5.28C51.6954 5.192 51.7834 5.092 51.9114 4.98C52.0394 4.86 52.1754 4.744 52.3194 4.632C52.4634 4.52 52.5994 4.42 52.7274 4.332C52.8554 4.244 52.9434 4.188 52.9914 4.164C53.0554 4.124 53.1274 4.092 53.2074 4.068C53.2954 4.036 53.3554 4.012 53.3874 3.996C53.5714 3.908 53.7594 3.876 53.9514 3.9C54.1434 3.924 54.2634 3.996 54.3114 4.116C54.3194 4.18 54.3434 4.228 54.3834 4.26C54.4314 4.292 54.4554 4.308 54.4554 4.308C54.4874 4.308 54.5034 4.32 54.5034 4.344C54.5114 4.368 54.5154 4.38 54.5154 4.38C54.5154 4.436 54.4714 4.472 54.3834 4.488C54.3034 4.496 54.1994 4.504 54.0714 4.512C53.9674 4.52 53.8754 4.54 53.7954 4.572C53.7154 4.604 53.6194 4.644 53.5074 4.692C53.2034 4.868 52.9114 5.04 52.6314 5.208C52.3594 5.376 52.0954 5.6 51.8394 5.88C51.7834 5.944 51.7274 6.02 51.6714 6.108C51.6154 6.196 51.5554 6.292 51.4914 6.396C51.4514 6.436 51.4114 6.524 51.3714 6.66C51.3314 6.796 51.2954 6.928 51.2634 7.056C51.2394 7.176 51.2274 7.248 51.2274 7.272C51.2274 7.272 51.2154 7.312 51.1914 7.392C51.1674 7.464 51.1274 7.536 51.0714 7.608C50.9754 7.736 50.8954 7.8 50.8314 7.8C50.7674 7.8 50.6714 7.736 50.5434 7.608ZM55.3837 7.632C55.2877 7.648 55.1837 7.632 55.0717 7.584C54.9597 7.536 54.8597 7.468 54.7717 7.38C54.6917 7.292 54.6397 7.2 54.6157 7.104C54.5837 6.936 54.6037 6.728 54.6757 6.48C54.7557 6.224 54.8677 5.956 55.0117 5.676C55.1637 5.388 55.3317 5.112 55.5157 4.848C55.7077 4.584 55.9037 4.356 56.1037 4.164C56.3117 3.964 56.5037 3.828 56.6797 3.756C56.7677 3.7 56.8357 3.664 56.8837 3.648C56.9397 3.624 56.9957 3.62 57.0517 3.636C57.1157 3.652 57.2077 3.692 57.3277 3.756C57.4397 3.788 57.5237 3.824 57.5797 3.864C57.6357 3.904 57.7077 3.984 57.7957 4.104C57.8597 4.224 57.9077 4.344 57.9397 4.464C57.9717 4.584 57.9997 4.72 58.0237 4.872C58.0877 5.072 58.1117 5.204 58.0957 5.268C58.0797 5.324 58.0557 5.368 58.0237 5.4C57.9597 5.48 57.9437 5.52 57.9757 5.52C57.9757 5.52 57.9717 5.536 57.9637 5.568C57.9637 5.592 57.9477 5.632 57.9157 5.688C57.8597 5.864 57.8157 6.048 57.7837 6.24C57.7597 6.424 57.7637 6.576 57.7957 6.696C57.8597 6.872 57.9757 6.976 58.1437 7.008C58.3117 7.04 58.4837 6.968 58.6597 6.792C58.7477 6.728 58.8317 6.672 58.9117 6.624C58.9917 6.568 59.0317 6.572 59.0317 6.636C59.0317 6.636 59.0437 6.648 59.0677 6.672C59.0917 6.688 59.1197 6.696 59.1517 6.696C59.1917 6.696 59.2157 6.712 59.2237 6.744C59.2397 6.776 59.2397 6.82 59.2237 6.876C59.2157 6.924 59.1917 6.98 59.1517 7.044C59.0317 7.164 58.9717 7.244 58.9717 7.284C58.9717 7.284 58.9557 7.3 58.9237 7.332C58.8997 7.356 58.8557 7.396 58.7917 7.452C58.6477 7.54 58.4637 7.584 58.2397 7.584C58.0237 7.584 57.8557 7.54 57.7357 7.452C57.6157 7.364 57.5037 7.244 57.3997 7.092C57.3037 6.94 57.2397 6.808 57.2077 6.696L57.1477 6.576L56.7997 6.804C56.7117 6.892 56.6157 6.976 56.5117 7.056C56.4157 7.136 56.3517 7.192 56.3197 7.224C56.2957 7.256 56.2677 7.284 56.2357 7.308C56.2117 7.332 56.1837 7.344 56.1517 7.344C56.1197 7.344 56.0917 7.344 56.0677 7.344C56.0437 7.344 56.0317 7.344 56.0317 7.344C56.0317 7.376 55.9917 7.416 55.9117 7.464C55.8397 7.512 55.7517 7.552 55.6477 7.584C55.5517 7.616 55.4637 7.632 55.3837 7.632ZM55.2637 6.984C55.3117 6.984 55.3957 6.948 55.5157 6.876C55.6437 6.796 55.7837 6.704 55.9357 6.6C56.0957 6.496 56.2357 6.392 56.3557 6.288C56.4837 6.184 56.5717 6.104 56.6197 6.048C56.6517 6.016 56.7037 5.964 56.7757 5.892C56.8477 5.812 56.9117 5.744 56.9677 5.688C57.1517 5.48 57.2797 5.252 57.3517 5.004C57.4237 4.748 57.4157 4.548 57.3277 4.404C57.2957 4.316 57.2557 4.268 57.2077 4.26C57.1597 4.252 57.0597 4.28 56.9077 4.344C56.8117 4.4 56.6917 4.508 56.5477 4.668C56.4117 4.82 56.2637 5 56.1037 5.208C55.9517 5.408 55.8077 5.616 55.6717 5.832C55.5357 6.048 55.4237 6.248 55.3357 6.432C55.2477 6.616 55.2037 6.76 55.2037 6.864C55.2037 6.896 55.2117 6.924 55.2277 6.948C55.2517 6.972 55.2637 6.984 55.2637 6.984Z" fill="#E95E40"/>
</svg>
