<svg xmlns="http://www.w3.org/2000/svg" width="60" height="9" fill="none" viewBox="0 0 60 9"><path fill="#e95e40" d="M7.524 8.604q-.012.072-.144.036-.12-.024-.216-.168a1.1 1.1 0 0 1-.096-.42q0-.192.012-.576.072-.42.192-1.092.132-.684.3-1.524.18-.852.384-1.776.144-.48.228-.876.096-.408.144-.66l.048-.252q0-.036-.072.036-.06.06-.12.144t-.048.132l-.084.12q-.084.12-.216.324-.12.12-.288.48t-.372.672q-.192.36-.408.78-.216.408-.384.684a4 4 0 0 0-.216.36 4 4 0 0 0-.132.264 2 2 0 0 1-.168.324q-.12.18-.264.36a6 6 0 0 0-.144.228 3 3 0 0 0-.12.192l-.036.072q0 .036-.12.216-.108.18-.276.396a4 4 0 0 1-.3.372q-.42.444-.672.528-.252.072-.564-.216a1.25 1.25 0 0 1-.228-.432 2 2 0 0 1-.06-.612q.012-.372.084-.924.084-.42.156-.84l.132-.804.12-.648q.06-.264.096-.348.024-.24-.012-.264t-.144.144q-.048.084-.252.42a24 24 0 0 0-.48.804q-.264.48-.528 1.044L1.44 6.816a68 68 0 0 1-.504.936l-.264.516a4 4 0 0 1-.12.228.5.5 0 0 1-.06.084.37.37 0 0 1-.228-.096 3 3 0 0 1-.228-.204A.4.4 0 0 1 0 8.112a1 1 0 0 1 .084-.24L.3 7.368q.156-.312.288-.54.132-.24.204-.288A2 2 0 0 0 .9 6.348a.6.6 0 0 0 .06-.228q.06-.072.18-.288.132-.228.264-.492.096-.156.24-.408.156-.252.324-.552.168-.312.3-.588.552-.948.936-1.596.384-.66.576-.84a.8.8 0 0 0 .12-.168.36.36 0 0 0 .072-.192q0-.252.096-.456.108-.216.216-.192.12 0 .216.024t.204.156q.096.144.168.288t-.012.576q0 .168-.036.384a17 17 0 0 1-.072.384l-.036.264q-.156.468-.288 1.056-.132.576-.24 1.176a26 26 0 0 0-.18 1.104q-.072.504-.096.84-.012.324.024.372.084.048.144.012t.204-.312q.084-.144.228-.348.156-.216.3-.396.096-.168.3-.504t.516-.864q.324-.528.768-1.284.456-.768 1.032-1.776.276-.42.516-.816.252-.408.408-.528Q8.52 0 8.7.084q.18.072.312.312.144.24.156.6.012.168-.048.54a9 9 0 0 1-.156.852 11 11 0 0 1-.276.972 6 6 0 0 1-.12.516q-.072.3-.168.624t-.192.612q-.06.396-.144.78-.072.384-.048.516-.108.192-.144.552t-.036.744q-.048.468-.072.66t-.084.18q-.156-.048-.156.06m1.989-1.008a.36.36 0 0 0-.12-.144q-.072-.06-.072-.108a.4.4 0 0 0-.012-.096.15.15 0 0 0-.048-.108q-.06-.072.012-.324.072-.264.24-.636.168-.384.396-.804.096-.096.192-.252t.144-.204q0-.048.036-.084.036-.048.084-.048v-.072q0-.06.108-.204.12-.144.288-.312.168-.18.348-.336.18-.168.3-.24.252-.168.516-.204a.6.6 0 0 1 .468.12l.12.12.192.192q.12.096.24.204l.444.396-.216.6q-.156.48-.084.84.084.36.24.624.06.132.24.252.192.12.36.144a.4.4 0 0 1 .18.072q.084.06.084.192 0 .12-.048.192t-.168.096a1.05 1.05 0 0 1-.744-.192q-.336-.24-.624-.792a2 2 0 0 1-.132-.264 3 3 0 0 1-.084-.264l-.18.228q-.132.156-.204.228-.852.864-1.476 1.164-.612.288-1.02.024m.432-.672q0 .084.252 0 .264-.096.564-.336.408-.348.816-.768.42-.42.672-.78l.264-.432q-.12-.276-.264-.372-.132-.108-.228-.108-.156 0-.468.288a6 6 0 0 0-.648.768q-.348.48-.66 1.056-.12.24-.216.468zm5.67 1.02a.7.7 0 0 1-.276-.132 2 2 0 0 1-.24-.264 1.2 1.2 0 0 1-.132-.276q0-.024-.036-.06l-.024-.036q-.048-.036-.06-.312 0-.288.036-.636a5 5 0 0 1 .084-.552q.06-.192.18-.516.12-.336.204-.6l.324-.696-.48-.132a.3.3 0 0 1-.144-.096.23.23 0 0 1-.048-.12q0-.096.108-.228.108-.144.156-.144.06.012.216.012.168 0 .324-.012a1 1 0 0 0 .192-.024 1 1 0 0 0 .096-.06.3.3 0 0 0 .072-.132l.108-.24q.048-.12.132-.264.084-.156.132-.264.06-.108.18-.3.06-.084.132-.204a.7.7 0 0 1 .18-.204q.108-.096.216-.084.12 0 .3.156.096.12.108.18t-.096.228q-.096.204-.228.408-.12.204-.228.408-.192.264-.072.3T17.703 3q.348-.06.504.036.156.084.18.288.036.288-.06.348t-.552.06a5 5 0 0 1-.492.06h-.3a3 3 0 0 1-.204.012.7.7 0 0 0-.144.024.26.26 0 0 0-.144.084 1 1 0 0 0-.084.144q-.048.048-.144.252a5 5 0 0 1-.24.444q-.168.504-.288 1.008-.12.492-.192.96-.048.3.012.42.06.108.312.132.132.012.42 0 .3-.024.468-.072.132-.06.276-.12.144-.072.264-.144l.216-.12.108-.072q.06-.096.132-.06t.12.18q0 .144-.06.3t-.444.372q-.54.336-.996.408-.444.06-.756 0m4.177.12q-.528 0-.864-.396-.336-.408-.324-1.008.024-.432.168-.924.156-.504.408-.96.252-.468.552-.816a1.8 1.8 0 0 1 .876-.588q.144-.036.288-.036.132 0 .276.048.144.036.24.084.204.084.312.204t.192.372q.036.228.036.324t-.06.288q-.144.432-.372.744a1.9 1.9 0 0 1-.612.528.9.9 0 0 1-.228.096q-.12.024-.252.024-.24 0-.468-.084a.85.85 0 0 1-.348-.276l-.084-.096-.036.096q-.12.324-.192.6a2.4 2.4 0 0 0-.06.504q0 .144.024.276a.9.9 0 0 0 .096.228.3.3 0 0 0 .156.108q.12.024.252.024h.168a.7.7 0 0 0 .18-.048q.204-.072.324-.156a5 5 0 0 0 .264-.18l.048-.024h-.012q.144-.072.252-.144l.12-.072q.048 0 .096-.06.096-.048.24.036.156.084.156.216a.6.6 0 0 1-.108.192q-.096.12-.216.228-.108.108-.18.12a.5.5 0 0 1-.084.048.3.3 0 0 0-.096.048h.012q-.108.144-.216.144h-.096q-.048.084-.312.192a1.5 1.5 0 0 1-.516.096m.54-2.64q.216 0 .372-.12.168-.132.288-.288.24-.324.276-.624.048-.312-.072-.432a.3.3 0 0 0-.132-.036.5.5 0 0 0-.204.036q-.108.024-.3.18t-.384.348a4 4 0 0 0-.276.324l-.156.252a.5.5 0 0 1 .18-.036q.096-.012.108.012 0 .108.036.204.048.084.108.132.072.048.156.048m3.05 1.992a1.6 1.6 0 0 1-.348-.42q-.108-.216-.168-.684-.024-.216.048-.564.072-.36.204-.756t.3-.72q.168-.336.336-.504.144-.18.228-.192.096-.024.336.084a.5.5 0 0 1 .132.336q0 .18-.144.408-.24.324-.42.816-.168.48-.228.864-.12.408-.108.552t.216.192q.228.048.54-.168a3 3 0 0 0 .612-.624q.3-.408.48-.888.072-.168.108-.396.048-.228.096-.336.06-.24.168-.348a.36.36 0 0 1 .228-.132q.12-.024.204.048.108.048.132.12.024.06 0 .336 0 .444-.192.756a4 4 0 0 0-.324.66q-.108.252-.324.564a3.5 3.5 0 0 1-.456.564q-.24.252-.468.348-.336.216-.6.216a2 2 0 0 1-.588-.132m4.741.504q-.3.024-.576-.036a1.2 1.2 0 0 1-.456-.204.84.84 0 0 1-.252-.372.7.7 0 0 1-.084-.228q0-.072.084-.12.096 0 .168.06.084.048.216.108a.7.7 0 0 0 .432.168q.264.012.48-.084t.24-.24a.7.7 0 0 0-.036-.168 5 5 0 0 0-.084-.252 3.7 3.7 0 0 1-.48-.9q-.144-.456-.144-.744a.95.95 0 0 1 .132-.456q.132-.252.36-.42.216-.228.48-.408t.528-.312q.276-.132.492-.192.132 0 .348.036a1 1 0 0 1 .3.084q.132.048.252.264.12.204.12.408a.7.7 0 0 1-.048.216 2 2 0 0 1-.156.312 2 2 0 0 1-.108.252.4.4 0 0 0-.06.156q-.06.132-.168.132a.4.4 0 0 1-.204-.108.9.9 0 0 1-.156-.252.8.8 0 0 1-.036-.288.6.6 0 0 1 .096-.252q.132-.132.132-.18t-.132-.048q-.084 0-.312.108a3 3 0 0 0-.468.264q-.24.156-.42.336-.228.216-.276.312a.9.9 0 0 0-.036.3q0 .168.072.42.084.252.168.336l.084.168q.084.156.204.336.348.768.18 1.104t-.876.384m5.976.684q-.142 0-.24-.156a.38.38 0 0 1-.096-.204q-.012-.12.084-.444.096-.336.325-1.02.12-.456.192-.66.071-.216.072-.312 0-.132.023-.216a.5.5 0 0 0 .036-.18q.073 0 .145-.132.07-.132.12-.36.048-.204.084-.324a.7.7 0 0 0 .047-.18q.06-.096.12-.3.072-.204.216-.492.097-.36.217-.744.12-.396.24-.732.132-.348.216-.54.132-.372.203-.516.072-.156 0-.204-.084-.06-.035-.204.048-.144.264-.324a1 1 0 0 1 .227-.216.4.4 0 0 1 .24-.072q.157 0 .444.024.217.012.456.012h.313q.108.048.264.108a4 4 0 0 1 .275.096q.133.048.133.084 0 .072.047.096l.12.024q.085 0 .229.132.144.12.3.312.155.18.24.384.095.204.144.384.06.18 0 .516a2 2 0 0 1-.06.36.6.6 0 0 1-.084.24.6.6 0 0 0-.133.12q-.06.072-.06.132a.5.5 0 0 1-.084.192 6 6 0 0 1-.504.672q-.155.18-.3.312a2.3 2.3 0 0 1-.372.36q-.204.168-.372.276-.312.144-.696.288a8 8 0 0 1-.72.24 1.8 1.8 0 0 1-.563.084q-.35.048-.457.096-.095.036-.144.204-.06.156-.12.324a1 1 0 0 0-.047.216 5 5 0 0 0-.12.3q-.084.24-.192.564-.096.324-.192.636t-.144.516q-.048.168-.12.192a.4.4 0 0 1-.18.036m1.489-3.72q.047.048.371.012t.697-.18q.24-.084.48-.204.251-.12.48-.264.12-.084.36-.3t.48-.516q.035-.06.12-.228.096-.18.167-.336a2.3 2.3 0 0 0 .216-.492q.108-.336.048-.552-.06-.312-.311-.576a1.25 1.25 0 0 0-.6-.372 2.6 2.6 0 0 0-.444-.048q-.169 0-.373.036a.6.6 0 0 0-.288.168q-.084.108-.227.456-.085.168-.24.516a8 8 0 0 0-.264.636q-.217.792-.432 1.308-.204.504-.253.636a.45.45 0 0 1-.012.192q-.024.048.024.108m4.207 2.76a.6.6 0 0 1-.144-.24q-.036-.144-.024-.288a.7.7 0 0 1 .06-.24q0-.096.024-.144.036-.06.024-.108a.4.4 0 0 1 .024-.168q.036-.12.072-.228.084-.192.18-.456.096-.276.18-.54l.144-.456q.06-.192.072-.24 0-.144.192-.156.144-.048.216 0 .072.036.192.228.096.096.072.288a1.7 1.7 0 0 1-.156.48 4 4 0 0 0-.12.276q-.06.18-.084.324a4 4 0 0 0-.12.276q-.06.168-.108.324-.024.06-.048.18a5 5 0 0 1-.06.24 1 1 0 0 1-.096.216q-.108.492-.204.576-.084.084-.288-.144m1.164-4.872a.6.6 0 0 1-.108-.168 1 1 0 0 1-.06-.216q-.012-.108.024-.108.096-.012.228-.204t.108-.336q0-.048.036-.084a.15.15 0 0 1 .084-.06q.144-.096.276-.024.144.06.264.252.108.228.06.384-.048.144-.264.408-.18.24-.336.264-.144.024-.312-.108m2.022 5.856q-.396-.06-.54-.3-.132-.228-.06-.708.072-.228.084-.408.024-.192.108-.24l.012-.036q.024-.036-.012-.072 0-.156.108-.432.024-.072.06-.168l.048-.108q-.06-.096 0-.156t.12-.108q.072-.06.012-.132-.024-.048.06-.216.084-.18.192-.372t.144-.3a1 1 0 0 1 .06-.168 21 21 0 0 1 .3-.684l.108-.204q.12-.06-.096-.084a3 3 0 0 0-.456-.012 9 9 0 0 1-.6-.036.9.9 0 0 1-.36-.108q-.144-.168-.108-.24.048-.084.288-.096.156-.012.24-.012.096 0 .24-.012.156-.024.48-.06l.612-.048.036-.204a3.7 3.7 0 0 0 .276-.54q.048-.132.072-.276l.108-.192q.108-.204.132-.42.144-.24.252-.432l.132-.252q.132-.108.18-.108.06 0 .24.12.108.06.192.144a.4.4 0 0 1 .108.18q.024.084-.072.168-.024.048-.072.18-.048.12-.072.204a2 2 0 0 0-.18.276q-.096.18-.132.372-.096.204-.18.372-.084.156-.132.156.024.12.144.12.12-.012.396-.024.228-.024.312-.048.096-.036.216.024a.7.7 0 0 1 .096.192.36.36 0 0 1 .012.204.15.15 0 0 1-.096.12 1 1 0 0 0-.252.072 1.7 1.7 0 0 1-.456.072l-.636.06-.204.408a5 5 0 0 0-.144.288.7.7 0 0 1-.084.144q0 .072-.084.216l-.156.312q-.072.204-.168.372l-.084.168q-.048 0-.048.072.06.144-.036.216a.35.35 0 0 0-.108.108l-.036.06q.048.048.012.12a1 1 0 0 1-.072.156q0 .096-.06.276-.048.18-.108.336.012.216.024.276t.06.048q.06.012.108 0a.4.4 0 0 1 .096-.012q.168-.072-.18.84-.192.3-.264.432-.072.144-.132.144m5.713-.624q-.084.048-.228-.036a1.1 1.1 0 0 1-.264-.252 1 1 0 0 1-.12-.312 4 4 0 0 1-.024-.468q.012-.24-.024-.312-.024-.072-.132.024a5 5 0 0 0-.372.348q-.3.3-.576.468-.264.168-.432.156-.084 0-.192-.084a1.3 1.3 0 0 1-.18-.228 2.4 2.4 0 0 1-.144-.288q-.072-.264-.024-.672.06-.42.192-.876a8 8 0 0 1 .3-.864q.18-.408.36-.66.192-.252.336-.252.096 0 .168.096.084.096.168.3.048.084.036.144 0 .06-.096.144a3 3 0 0 0-.252.432q-.132.288-.264.624-.12.336-.216.648a5 5 0 0 0-.132.516q-.036.192.012.192.168 0 .396-.132a2.7 2.7 0 0 0 .456-.348q.252-.252.444-.552.204-.3.408-.636.156-.24.324-.528a3 3 0 0 0 .228-.408q.168-.312.252-.42a.4.4 0 0 1 .204-.156h.168q.072.012.168.108.096.048.108.096a.3.3 0 0 1 .012.096q-.048.12-.156.36l-.144.336q-.228.516-.456 1.02a4.6 4.6 0 0 0-.312 1.008 2 2 0 0 0-.012.396q.024.216.072.312l.084.168q.06.084.132.144.108.072.036.156a.5.5 0 0 1-.312.192m1.85-.396a.6.6 0 0 1-.157-.168q-.036-.084 0-.324.036-.336.096-.588.06-.264.144-.6.024-.144.132-.492.12-.348.288-.756t.336-.768q.168-.372.288-.552a.32.32 0 0 1 .228-.06.37.37 0 0 1 .24.108q.132.108.036.384a8 8 0 0 1-.36.84q-.144.324-.216.492-.072.156-.06.192.012.024.108-.036.072-.132.264-.3.192-.18.408-.348a9 9 0 0 1 .408-.3q.192-.132.264-.168a1 1 0 0 1 .216-.096q.132-.048.18-.072a1 1 0 0 1 .564-.096q.288.036.36.216a.2.2 0 0 0 .072.144l.072.048q.048 0 .048.036l.012.036q0 .084-.132.108a9 9 0 0 1-.312.024 1 1 0 0 0-.276.06q-.12.048-.288.12-.456.264-.876.516a3.8 3.8 0 0 0-.792.672q-.084.096-.168.228l-.18.288q-.06.06-.12.264t-.108.396q-.036.18-.036.216l-.036.12a.7.7 0 0 1-.12.216q-.144.192-.24.192t-.288-.192m4.84.024q-.144.024-.312-.048a1 1 0 0 1-.3-.204.64.64 0 0 1-.156-.276q-.048-.252.06-.624.12-.384.336-.804.228-.432.504-.828.288-.396.588-.684.312-.3.576-.408.132-.084.204-.108a.24.24 0 0 1 .168-.012q.096.024.276.12a.8.8 0 0 1 .252.108q.084.06.216.24.096.18.144.36t.084.408q.096.3.072.396a.3.3 0 0 1-.072.132q-.096.12-.048.12l-.012.048a.3.3 0 0 1-.048.12q-.084.264-.132.552-.036.276.012.456.096.264.348.312t.516-.216q.132-.096.252-.168.12-.084.12.012l.036.036a.15.15 0 0 0 .084.024q.06 0 .072.048.024.048 0 .132a.5.5 0 0 1-.072.168q-.18.18-.18.24l-.048.048a3 3 0 0 1-.132.12 1.04 1.04 0 0 1-.552.132q-.324 0-.504-.132a1.5 1.5 0 0 1-.336-.36 1.6 1.6 0 0 1-.192-.396l-.06-.12-.348.228a3 3 0 0 1-.288.252q-.144.12-.192.168a.4.4 0 0 1-.084.084.12.12 0 0 1-.084.036h-.12q0 .048-.12.12a1 1 0 0 1-.264.12.8.8 0 0 1-.264.048m-.12-.648q.072 0 .252-.108.192-.12.42-.276.24-.156.42-.312.192-.156.264-.24l.156-.156q.108-.12.192-.204a1.8 1.8 0 0 0 .384-.684q.108-.384-.024-.6-.048-.132-.12-.144t-.3.084a1.7 1.7 0 0 0-.36.324 8.628 8.628 0 0 0-.876 1.164 6 6 0 0 0-.336.6q-.132.276-.132.432 0 .048.024.084z"/></svg>