<svg xmlns="http://www.w3.org/2000/svg" width="416" height="95" fill="none" viewBox="0 0 416 95"><g clip-path="url(#a)"><path fill="#fff" d="M41.64 69.385C29.006 67.853 20.105 58.762 20.105 46.99c0-4.785 1.723-9.953 4.594-13.398-1.244-3.158-1.053-9.858.383-12.633 3.828-.479 8.996 1.531 12.058 4.307 3.637-1.149 7.465-1.723 12.155-1.723s8.517.574 11.962 1.627c2.967-2.68 8.231-4.69 12.06-4.211 1.339 2.584 1.53 9.283.286 12.537 3.063 3.637 4.69 8.518 4.69 13.494 0 11.772-8.9 20.672-21.725 22.3 3.254 2.104 5.455 6.698 5.455 11.962v9.953c0 2.871 2.393 4.498 5.264 3.35C84.61 87.95 98.2 70.629 98.2 49.19 98.2 22.107 76.188 0 49.104 0S.2 22.107.2 49.191c0 21.246 13.494 38.856 31.678 45.46 2.584.956 5.072-.766 5.072-3.35v-7.657c-1.34.575-3.062.958-4.594.958-6.316 0-10.049-3.446-12.728-9.858-1.053-2.584-2.201-4.115-4.403-4.402-1.148-.096-1.53-.574-1.53-1.149 0-1.148 1.913-2.01 3.827-2.01 2.776 0 5.168 1.723 7.657 5.264 1.914 2.776 3.923 4.02 6.316 4.02s3.924-.861 6.125-3.063c1.627-1.627 2.871-3.062 4.02-4.02"/><g clip-path="url(#b)"><path fill="#fff" d="M188.937 83.005V33.282h13.978v49.721zm41.079 0c-9.289 0-12.917-3.982-12.917-12.387V44.961h-8.847V33.283h8.847v-9.91l13.979-3.273v13.183h10.351V44.96h-10.351v22.56c0 2.743 1.239 3.805 3.981 3.805h6.37v11.679zm97.454.884c-10.882 0-16.81-6.016-16.81-16.987v-33.62h14.068v29.905c0 6.104 2.742 9.466 7.962 9.466 6.016 0 10.617-5.574 10.617-13.182V33.283h14.067v49.721h-14.067V74.6c-2.654 5.396-9.024 9.29-15.837 9.29m67.143 0c-6.781 0-12.974-3.893-15.926-9.466v8.581h-13.978V13.642h14.067v28.753c2.863-6.016 9.322-10.263 15.837-10.263 13.568 0 20.735 9.379 20.26 25.923.475 16.368-6.957 25.834-20.26 25.834m-4.955-11.767c7.287 0 11.268-5.397 10.794-14.067.474-8.759-3.507-14.156-10.794-14.156-5.807 0-10.407 5.663-10.882 13.448v.797c.475 8.05 5.075 13.978 10.882 13.978m-100.924-58.48v28.134h-26.365V13.642h-15.04v69.363h15.04V55.223h26.365v27.78h15.041V13.642zm-138.106 70.69c-20.526 0-33.443-14.068-33.443-36.097s13.183-35.92 34.062-35.92c16.987 0 27.25 7.254 30.523 19.464l-15.217 3.627c-1.858-6.635-7.166-10.263-15.306-10.263-12.121 0-18.668 7.963-18.668 23.092s6.37 23.268 18.314 23.268c10.971 0 17.518-6.724 17.518-18.137v-2.654l3.893 5.397h-22.649v-12.74h33.973v8.05c0 21.146-12.297 32.913-33 32.913m45.298-55.738c4.689 0 8.317-3.628 8.317-8.317s-3.628-8.316-8.317-8.316-8.316 3.627-8.316 8.316 3.627 8.317 8.316 8.317"/></g></g><defs><clipPath id="a"><path fill="#fff" d="M0 0h416v95H0z"/></clipPath><clipPath id="b"><path fill="#fff" d="M117.185 9.493h298.068v75.94H117.185z"/></clipPath></defs></svg>